<svg xmlns="http://www.w3.org/2000/svg" xmlns:xlink="http://www.w3.org/1999/xlink" width="816pt" height="188pt" viewBox="0.00 0.00 816.00 188.00">
<g id="graph0" class="graph" transform="scale(1 1) rotate(0) translate(4 184)">
<title>packages</title>
<polygon fill="white" stroke="none" points="-4,4 -4,-184 812.17,-184 812.17,4 -4,4"/>
<!-- qstrader.signals -->
<g id="node1" class="node">
<title>qstrader.signals</title>
<polygon fill="none" stroke="black" points="103.48,-36 0,-36 0,0 103.48,0 103.48,-36"/>
<text xml:space="preserve" text-anchor="start" x="8" y="-13.8" font-family="Times,serif" font-size="14.00">qstrader.signals</text>
</g>
<!-- qstrader.signals.buffer -->
<g id="node2" class="node">
<title>qstrader.signals.buffer</title>
<polygon fill="none" stroke="black" points="577.33,-180 436.15,-180 436.15,-144 577.33,-144 577.33,-180"/>
<text xml:space="preserve" text-anchor="start" x="444.15" y="-157.8" font-family="Times,serif" font-size="14.00">qstrader.signals.buffer</text>
</g>
<!-- qstrader.signals.momentum -->
<g id="node3" class="node">
<title>qstrader.signals.momentum</title>
<polygon fill="none" stroke="black" points="292.12,-36 121.36,-36 121.36,0 292.12,0 292.12,-36"/>
<text xml:space="preserve" text-anchor="start" x="129.36" y="-13.8" font-family="Times,serif" font-size="14.00">qstrader.signals.momentum</text>
</g>
<!-- qstrader.signals.signal -->
<g id="node4" class="node">
<title>qstrader.signals.signal</title>
<polygon fill="none" stroke="black" points="576.95,-108 436.53,-108 436.53,-72 576.95,-72 576.95,-108"/>
<text xml:space="preserve" text-anchor="start" x="444.53" y="-85.8" font-family="Times,serif" font-size="14.00">qstrader.signals.signal</text>
</g>
<!-- qstrader.signals.momentum&#45;&gt;qstrader.signals.signal -->
<g id="edge1" class="edge">
<title>qstrader.signals.momentum-&gt;qstrader.signals.signal</title>
<path fill="none" stroke="black" d="M281.67,-36.48C325.36,-46.68 380.5,-59.54 425.26,-69.99"/>
<polygon fill="black" stroke="black" points="434.93,-72.24 424.17,-74.35 431.24,-71.38 425.19,-69.97 425.19,-69.97 425.19,-69.97 431.24,-71.38 426.21,-65.59 434.93,-72.24"/>
</g>
<!-- qstrader.signals.signal&#45;&gt;qstrader.signals.buffer -->
<g id="edge2" class="edge">
<title>qstrader.signals.signal-&gt;qstrader.signals.buffer</title>
<path fill="none" stroke="black" d="M506.74,-108.3C506.74,-115.68 506.74,-124.48 506.74,-132.75"/>
<polygon fill="black" stroke="black" points="506.74,-142.68 502.24,-132.68 506.74,-138.9 506.74,-132.68 506.74,-132.68 506.74,-132.68 506.74,-138.9 511.24,-132.68 506.74,-142.68"/>
</g>
<!-- qstrader.signals.signals_collection -->
<g id="node5" class="node">
<title>qstrader.signals.signals_collection</title>
<polygon fill="none" stroke="black" points="517.77,-36 309.71,-36 309.71,0 517.77,0 517.77,-36"/>
<text xml:space="preserve" text-anchor="start" x="317.71" y="-13.8" font-family="Times,serif" font-size="14.00">qstrader.signals.signals_collection</text>
</g>
<!-- qstrader.signals.signals_collection&#45;&gt;qstrader.signals.signal -->
<g id="edge3" class="edge">
<title>qstrader.signals.signals_collection-&gt;qstrader.signals.signal</title>
<path fill="none" stroke="black" d="M436.73,-36.3C448.24,-44.97 462.36,-55.6 474.9,-65.04"/>
<polygon fill="black" stroke="black" points="482.72,-70.92 472.02,-68.5 479.7,-68.65 474.73,-64.91 474.73,-64.91 474.73,-64.91 479.7,-68.65 477.44,-61.31 482.72,-70.92"/>
</g>
<!-- qstrader.signals.sma -->
<g id="node6" class="node">
<title>qstrader.signals.sma</title>
<polygon fill="none" stroke="black" points="665.51,-36 535.97,-36 535.97,0 665.51,0 665.51,-36"/>
<text xml:space="preserve" text-anchor="start" x="543.97" y="-13.8" font-family="Times,serif" font-size="14.00">qstrader.signals.sma</text>
</g>
<!-- qstrader.signals.sma&#45;&gt;qstrader.signals.signal -->
<g id="edge4" class="edge">
<title>qstrader.signals.sma-&gt;qstrader.signals.signal</title>
<path fill="none" stroke="black" d="M577.5,-36.3C565.87,-44.97 551.59,-55.6 538.92,-65.04"/>
<polygon fill="black" stroke="black" points="531.01,-70.93 536.34,-61.34 534.04,-68.67 539.03,-64.95 539.03,-64.95 539.03,-64.95 534.04,-68.67 541.72,-68.56 531.01,-70.93"/>
</g>
<!-- qstrader.signals.vol -->
<g id="node7" class="node">
<title>qstrader.signals.vol</title>
<polygon fill="none" stroke="black" points="808.17,-36 683.31,-36 683.31,0 808.17,0 808.17,-36"/>
<text xml:space="preserve" text-anchor="start" x="691.31" y="-13.8" font-family="Times,serif" font-size="14.00">qstrader.signals.vol</text>
</g>
<!-- qstrader.signals.vol&#45;&gt;qstrader.signals.signal -->
<g id="edge5" class="edge">
<title>qstrader.signals.vol-&gt;qstrader.signals.signal</title>
<path fill="none" stroke="black" d="M686.05,-36.48C652.84,-46.21 611.34,-58.36 576.62,-68.53"/>
<polygon fill="black" stroke="black" points="567.26,-71.28 575.59,-64.15 570.88,-70.21 576.85,-68.46 576.85,-68.46 576.85,-68.46 570.88,-70.21 578.12,-72.78 567.26,-71.28"/>
</g>
</g>
</svg>